<svg width="58" height="72" viewBox="0 0 58 72" fill="none" xmlns="http://www.w3.org/2000/svg">
<path fill-rule="evenodd" clip-rule="evenodd" d="M2 2V70H56V18.8L39.4 2H2Z" fill="#EBEDED"/>
<path d="M39 2V19.5H56.5" stroke="#1E2428" stroke-width="3" stroke-linejoin="round"/>
<path fill-rule="evenodd" clip-rule="evenodd" d="M2 2V70H56V19.3L38.9 2H2Z" stroke="#1E2428" stroke-width="3" stroke-linejoin="round"/>
<path fill-rule="evenodd" clip-rule="evenodd" d="M35.2423 36.5169C34.7395 36.0142 33.9248 36.0142 33.4219 36.5169L27.106 42.8329L24.3756 40.1025C23.8728 39.5999 23.0581 39.5999 22.5552 40.1025C22.0526 40.6052 22.0526 41.4202 22.5552 41.9229L26.1958 45.5633C26.4373 45.8047 26.7646 45.9403 27.106 45.9403C27.4473 45.9403 27.7746 45.8047 28.0161 45.5633L35.2423 38.3371C35.7449 37.8345 35.7449 37.0195 35.2423 36.5169Z" fill="#1E2428"/>
<path d="M28.9329 28.031C21.8017 28.031 16 33.8327 16 40.9639C16 48.0952 21.8017 53.897 28.9329 53.897C36.0641 53.897 41.8659 48.0953 41.8659 40.9641C41.8659 33.8329 36.0641 28.031 28.9329 28.031ZM28.9329 51.3228C23.221 51.3228 18.5743 46.6758 18.5743 40.9641C18.5743 35.2523 23.221 30.6053 28.9329 30.6053C34.6448 30.6053 39.2916 35.2522 39.2916 40.9639C39.2916 46.6757 34.6448 51.3228 28.9329 51.3228Z" fill="#1E2428" stroke="#1E2428" stroke-width="0.4"/>
</svg>
