<svg width="58" height="72" viewBox="0 0 58 72" fill="none" xmlns="http://www.w3.org/2000/svg">
<path fill-rule="evenodd" clip-rule="evenodd" d="M2 2V70H56V18.8L39.4 2H2Z" fill="#EBEDED"/>
<path d="M39 2V19.5H56.5" stroke="#1E2428" stroke-width="3" stroke-linejoin="round"/>
<path fill-rule="evenodd" clip-rule="evenodd" d="M2 2V70H56V19.3L38.9 2H2Z" stroke="#1E2428" stroke-width="3" stroke-linejoin="round"/>
<path fill-rule="evenodd" clip-rule="evenodd" d="M22.6581 35.3886C22.2253 34.9558 21.5239 34.9558 21.0911 35.3886L16.3442 40.1355C15.9117 40.568 15.9117 41.2697 16.3442 41.7022L21.0911 46.4494C21.3075 46.6657 21.5911 46.7739 21.8745 46.7739C22.1581 46.7739 22.4417 46.6657 22.6581 46.4494C23.0906 46.0166 23.0906 45.3151 22.6581 44.8823L18.6946 40.9188L22.6581 36.9553C23.0906 36.5225 23.0906 35.8211 22.6581 35.3886Z" fill="black"/>
<path fill-rule="evenodd" clip-rule="evenodd" d="M36.8988 35.3886C36.4663 34.9558 35.7649 34.9558 35.3321 35.3886C34.8993 35.8211 34.8993 36.5225 35.3321 36.9553L39.2956 40.9188L35.3321 44.8823C34.8993 45.3151 34.8993 46.0166 35.3321 46.4494C35.5485 46.6657 35.8318 46.7739 36.1154 46.7739C36.3991 46.7739 36.6827 46.6657 36.8988 46.4494L41.6457 41.7022C42.0785 41.2697 42.0785 40.5682 41.6457 40.1355L36.8988 35.3886Z" fill="black"/>
<path fill-rule="evenodd" clip-rule="evenodd" d="M31.8639 35.1808C31.3169 34.9073 30.6513 35.1292 30.3774 35.6763L25.6305 45.1703C25.357 45.7177 25.5789 46.3833 26.126 46.6568C26.2849 46.7365 26.454 46.774 26.6205 46.774C27.027 46.774 27.4183 46.5495 27.6125 46.1614L32.3594 36.6674C32.6332 36.12 32.4113 35.4544 31.8639 35.1808Z" fill="black"/>
</svg>
