<svg width="85" height="72" viewBox="0 0 85 72" fill="none" xmlns="http://www.w3.org/2000/svg">
<path fill-rule="evenodd" clip-rule="evenodd" d="M3 2V70H57V18.8L40.4 2H3Z" fill="#EBEDED"/>
<path d="M39 2V19.5H56.5" stroke="#1E2428" stroke-width="3" stroke-linejoin="round"/>
<path fill-rule="evenodd" clip-rule="evenodd" d="M2 2V70H56V19.3L38.9 2H2Z" stroke="#1E2428" stroke-width="3" stroke-linejoin="round"/>
<path fill-rule="evenodd" clip-rule="evenodd" d="M83.6764 18.9L79.6764 14.9C79.0764 14.3 78.2764 14 77.5764 14C76.8764 14 76.0764 14.3 75.4764 14.9L71.8764 18.5L54.2764 36.1L42.8764 47.5C42.5764 47.8 42.2764 48.2 42.1764 48.7L40.1764 54.7C39.7764 55.8 40.0764 57 40.8764 57.8C41.4764 58.4 42.1764 58.7 42.9764 58.7C43.2764 58.7 43.5764 58.6 43.8764 58.5L46.8764 57.5C49.7764 56.5 51.0764 56.1 51.5764 55.2L83.6764 23.1C84.2764 22.5 84.5764 21.8 84.5764 21C84.5764 20.2 84.2764 19.4 83.6764 18.9Z" fill="#F5F7F7"/>
<path d="M76.1072 26.3242L72.0761 22.2937L47.1862 47.1871L51.2173 51.2176L76.1072 26.3242Z" fill="#1E2428"/>
<path fill-rule="evenodd" clip-rule="evenodd" d="M43 55.2998L49 53.2998L45 49.2998L43 55.2998Z" fill="#1E2428"/>
<path d="M81.4958 21.0305L77.4648 17L74 20.4653L78.031 24.4957L81.4958 21.0305Z" fill="#1E2428"/>
<path fill-rule="evenodd" clip-rule="evenodd" d="M37.1864 28.4292C36.6259 28.5091 36.2351 29.0311 36.3129 29.5951L36.5062 30.9914C34.9867 29.889 33.2336 29.1428 31.367 28.8137C24.5792 27.6168 18.0765 32.2035 16.8713 39.0383C15.6662 45.8731 20.208 52.4073 26.9958 53.6042C33.7836 54.8011 40.2864 50.2143 41.4915 43.3795C41.5905 42.8185 41.2189 42.2839 40.6616 42.1856C40.1045 42.0874 39.5724 42.4626 39.4735 43.0237C38.4659 48.738 33.0293 52.5729 27.3541 51.5722C21.679 50.5715 17.8818 45.1085 18.8894 39.3942C19.897 33.6798 25.3337 29.845 31.0087 30.8457C32.5725 31.1214 34.0407 31.7466 35.312 32.6708L33.8524 32.8788C33.2919 32.9587 32.9009 33.4809 32.9788 34.0447C33.057 34.6088 33.5747 35.0013 34.1352 34.9213L38.0087 34.369C38.4597 34.3048 38.8011 33.9543 38.8766 33.526C38.895 33.422 38.8976 33.3133 38.8824 33.2031L38.343 29.3057C38.2648 28.7418 37.7472 28.3493 37.1864 28.4292Z" fill="#1E2428" stroke="#1E2428" stroke-width="0.9"/>
</svg>
