<svg width="10" height="10" viewBox="0 0 10 10" fill="none" xmlns="http://www.w3.org/2000/svg">
<path d="M0.115385 5.38462C0.0384615 5.30769 0 5.19231 0 5.11539C0 5.03846 0.0384615 4.92308 0.115385 4.84615L0.653846 4.30769C0.807692 4.15385 1.03846 4.15385 1.19231 4.30769L1.23077 4.34615L3.34615 6.61539C3.42308 6.69231 3.53846 6.69231 3.61538 6.61539L8.76923 1.26923H8.80769C8.96154 1.11539 9.19231 1.11539 9.34615 1.26923L9.88462 1.80769C10.0385 1.96154 10.0385 2.19231 9.88462 2.34615L3.73077 8.73077C3.65385 8.80769 3.57692 8.84615 3.46154 8.84615C3.34615 8.84615 3.26923 8.80769 3.19231 8.73077L0.192308 5.5L0.115385 5.38462Z" fill="white"/>
</svg>
