<?xml version="1.0" encoding="UTF-8"?>
<svg width="154px" height="154px" viewBox="0 0 154 154" version="1.1" xmlns="http://www.w3.org/2000/svg" xmlns:xlink="http://www.w3.org/1999/xlink">
    <!-- Generator: Sketch 60.1 (88133) - https://sketch.com -->
    <title>Article</title>
    <desc>Created with Sketch.</desc>
    <defs>
        <rect id="path-1" x="-2.84217094e-14" y="0" width="154" height="154" rx="4"></rect>
        <linearGradient x1="27.1603954%" y1="20.0774341%" x2="71.5282207%" y2="76.6927332%" id="linearGradient-3">
            <stop stop-color="#FFFFFF" offset="0%"></stop>
            <stop stop-color="#FFFFFF" stop-opacity="0" offset="100%"></stop>
        </linearGradient>
    </defs>
    <g id="Article" stroke="none" stroke-width="1" fill="none" fill-rule="evenodd">
        <mask id="mask-2" fill="white">
            <use xlink:href="#path-1"></use>
        </mask>
        <use id="Mask" fill="#0BA986" xlink:href="#path-1"></use>
        <path d="M72.5881849,93.6434262 C74.6833391,92.7132413 77.2827584,92.7132413 79.3779126,93.6434262 C80.2358325,94.0205282 95.4284898,100.8499 107.491803,111.40657 C96.5842831,114.981934 85.507187,123.923077 75.9830487,123.923077 C66.4589105,123.923077 55.3818144,114.981934 44.4754098,111.405477 C56.539839,100.850993 71.730265,94.0205282 72.5881849,93.6434262 Z M33.6215927,78.5275551 C35.1250885,77.1258722 37.5255436,76.6002411 39.6478632,77.2057149 C40.3984941,77.415302 56.0712655,82.6937914 68.8688525,90.4584936 C65.0453262,92.6741285 47.9952811,100.879074 38.4917575,110.932601 C30.7531102,107.901905 23.2099397,105.216085 17.7589295,103.648064 C17.0418089,101.351477 16.4564955,98.9983354 16.0163934,96.596401 C22.9965908,86.6681834 33.1535654,78.9677989 33.6215927,78.5275551 Z M113.512476,77.2014567 C115.647631,76.6068108 118.062605,77.1219528 119.575194,78.4996582 C120.062908,78.9461873 130.962316,87.0109374 137.983607,97.2353633 C137.586917,99.1597946 137.094708,101.049375 136.510349,102.901926 C130.97243,104.38963 120.705345,105.77569 112.445664,108.934066 C102.883538,99.0603287 87.9614055,92.393246 84.1147541,90.2172337 C96.9897425,82.591389 112.757305,77.4072957 113.512476,77.2014567 Z M136.711485,68.96337 C138.201628,73.9741149 139,79.2527398 139,84.7042595 C139,86.1311745 138.942163,87.547417 138.834429,88.9487179 C132.072081,81.4384705 125.543348,75.8023163 122.737705,73.7083693 C127.547216,71.7339544 132.355594,70.1757674 136.711485,68.96337 Z M17.2029112,68.96337 C21.3048062,70.1505382 25.7747911,71.6476832 30.2459016,73.5118494 C27.5758427,75.5353092 21.5108015,80.842586 15.1013092,87.9494505 C15.036021,86.8419292 15,85.7257973 15,84.6021314 C15,79.1883 15.7676982,73.9456017 17.2029112,68.96337 Z M72.7435558,51.7860531 C74.8502058,50.7067247 77.4638875,50.7067247 79.5705375,51.7860531 C80.4331646,52.2245303 98.4114811,59.1335382 110.540984,71.3934911 C99.573616,75.546512 82.3468732,86.9501832 76.1570466,86.9501832 C69.9672201,86.9501832 54.5075826,75.5476001 43.540215,71.3934911 C55.671961,59.1368023 71.8809287,52.2245303 72.7435558,51.7860531 Z M111.210687,34.9882784 C121.949906,41.9869279 130.326475,52.1580784 134.934426,64.1229079 C126.652855,67.419756 119.474376,70.0541533 116.281333,68.5102688 C110.289767,65.6095707 96.141804,51.1875109 80.0491803,45.6205034 C96.7866713,37.0856724 108.603277,35.4757629 111.210687,34.9882784 Z M42.6101117,34.9882784 C46.219169,35.6211161 57.4679911,37.5825818 72.9344262,45.5355741 C56.9150622,51.1228797 42.8303932,65.5975244 36.8661033,68.5087989 C33.7866117,70.0097177 26.9834718,67.5744521 19.0655738,64.4124722 C23.6002587,52.3410647 31.9208937,42.0709807 42.6101117,34.9882784 Z M74.496324,19.449393 C76.3532681,18.8502023 78.6598114,18.8502023 80.5178601,19.449393 C81.2789752,19.6931135 94.757009,24.0992397 105.459016,30.9095784 C95.7821394,33.2169411 81.6479338,38.985348 77.5065397,38.985348 C73.3662503,38.9842837 59.2309401,33.2169411 49.557377,30.9095784 C60.2582797,24.0992397 73.7341042,19.6931135 74.496324,19.449393 Z" id="Combined-Shape-Copy-2" fill="url(#linearGradient-3)" opacity="0.200000003" mask="url(#mask-2)"></path>
        <path d="M68.8,63 C67.26,63 66.014,64.26 66.014,65.8 L66,88.2 C66,89.74 67.246,91 68.786,91 L85.6,91 C87.14,91 88.4,89.74 88.4,88.2 L88.4,71.4 L80,63 L68.8,63 Z M78.6,72.8 L78.6,65.1 L86.3,72.8 L78.6,72.8 Z" id="Shape" fill="#FFFFFF" fill-rule="nonzero" mask="url(#mask-2)"></path>
    </g>
</svg>