<?xml version="1.0" encoding="UTF-8"?>
<svg width="154px" height="154px" viewBox="0 0 154 154" version="1.1" xmlns="http://www.w3.org/2000/svg" xmlns:xlink="http://www.w3.org/1999/xlink">
    <!-- Generator: Sketch 60.1 (88133) - https://sketch.com -->
    <title>Collection</title>
    <desc>Created with Sketch.</desc>
    <defs>
        <rect id="path-1" x="-2.84217094e-14" y="0" width="154" height="154" rx="4"></rect>
        <linearGradient x1="27.1603954%" y1="20.0774341%" x2="71.5282207%" y2="76.6927332%" id="linearGradient-3">
            <stop stop-color="#FFFFFF" offset="0%"></stop>
            <stop stop-color="#FFFFFF" stop-opacity="0" offset="100%"></stop>
        </linearGradient>
    </defs>
    <g id="Collection" stroke="none" stroke-width="1" fill="none" fill-rule="evenodd">
        <mask id="mask-2" fill="white">
            <use xlink:href="#path-1"></use>
        </mask>
        <use id="Mask" fill="#FFAE29" xlink:href="#path-1"></use>
        <path d="M72.5881849,94.6434262 C74.6833391,93.7132413 77.2827584,93.7132413 79.3779126,94.6434262 C80.2358325,95.0205282 95.4284898,101.8499 107.491803,112.40657 C96.5842831,115.981934 85.507187,124.923077 75.9830487,124.923077 C66.4589105,124.923077 55.3818144,115.981934 44.4754098,112.405477 C56.539839,101.850993 71.730265,95.0205282 72.5881849,94.6434262 Z M33.6215927,79.5275551 C35.1250885,78.1258722 37.5255436,77.6002411 39.6478632,78.2057149 C40.3984941,78.415302 56.0712655,83.6937914 68.8688525,91.4584936 C65.0453262,93.6741285 47.9952811,101.879074 38.4917575,111.932601 C30.7531102,108.901905 23.2099397,106.216085 17.7589295,104.648064 C17.0418089,102.351477 16.4564955,99.9983354 16.0163934,97.596401 C22.9965908,87.6681834 33.1535654,79.9677989 33.6215927,79.5275551 Z M113.512476,78.2014567 C115.647631,77.6068108 118.062605,78.1219528 119.575194,79.4996582 C120.062908,79.9461873 130.962316,88.0109374 137.983607,98.2353633 C137.586917,100.159795 137.094708,102.049375 136.510349,103.901926 C130.97243,105.38963 120.705345,106.77569 112.445664,109.934066 C102.883538,100.060329 87.9614055,93.393246 84.1147541,91.2172337 C96.9897425,83.591389 112.757305,78.4072957 113.512476,78.2014567 Z M136.711485,69.96337 C138.201628,74.9741149 139,80.2527398 139,85.7042595 C139,87.1311745 138.942163,88.547417 138.834429,89.9487179 C132.072081,82.4384705 125.543348,76.8023163 122.737705,74.7083693 C127.547216,72.7339544 132.355594,71.1757674 136.711485,69.96337 Z M17.2029112,69.96337 C21.3048062,71.1505382 25.7747911,72.6476832 30.2459016,74.5118494 C27.5758427,76.5353092 21.5108015,81.842586 15.1013092,88.9494505 C15.036021,87.8419292 15,86.7257973 15,85.6021314 C15,80.1883 15.7676982,74.9456017 17.2029112,69.96337 Z M72.7435558,52.7860531 C74.8502058,51.7067247 77.4638875,51.7067247 79.5705375,52.7860531 C80.4331646,53.2245303 98.4114811,60.1335382 110.540984,72.3934911 C99.573616,76.546512 82.3468732,87.9501832 76.1570466,87.9501832 C69.9672201,87.9501832 54.5075826,76.5476001 43.540215,72.3934911 C55.671961,60.1368023 71.8809287,53.2245303 72.7435558,52.7860531 Z M111.210687,35.9882784 C121.949906,42.9869279 130.326475,53.1580784 134.934426,65.1229079 C126.652855,68.419756 119.474376,71.0541533 116.281333,69.5102688 C110.289767,66.6095707 96.141804,52.1875109 80.0491803,46.6205034 C96.7866713,38.0856724 108.603277,36.4757629 111.210687,35.9882784 Z M42.6101117,35.9882784 C46.219169,36.6211161 57.4679911,38.5825818 72.9344262,46.5355741 C56.9150622,52.1228797 42.8303932,66.5975244 36.8661033,69.5087989 C33.7866117,71.0097177 26.9834718,68.5744521 19.0655738,65.4124722 C23.6002587,53.3410647 31.9208937,43.0709807 42.6101117,35.9882784 Z M74.496324,20.449393 C76.3532681,19.8502023 78.6598114,19.8502023 80.5178601,20.449393 C81.2789752,20.6931135 94.757009,25.0992397 105.459016,31.9095784 C95.7821394,34.2169411 81.6479338,39.985348 77.5065397,39.985348 C73.3662503,39.9842837 59.2309401,34.2169411 49.557377,31.9095784 C60.2582797,25.0992397 73.7341042,20.6931135 74.496324,20.449393 Z" id="Combined-Shape-Copy-3" fill="url(#linearGradient-3)" opacity="0.200000003" mask="url(#mask-2)"></path>
        <path d="M73.7142857,65.5714286 L65.1428571,65.5714286 C63.5714286,65.5714286 62.3,66.8571429 62.3,68.4285714 L62.2857143,85.5714286 C62.2857143,87.1428571 63.5714286,88.4285714 65.1428571,88.4285714 L88,88.4285714 C89.5714286,88.4285714 90.8571429,87.1428571 90.8571429,85.5714286 L90.8571429,71.2857143 C90.8571429,69.7142857 89.5714286,68.4285714 88,68.4285714 L76.5714286,68.4285714 L73.7142857,65.5714286 Z" id="Path" fill="#FFFFFF" fill-rule="nonzero" mask="url(#mask-2)"></path>
    </g>
</svg>