<?xml version="1.0" encoding="UTF-8"?>
<svg width="154px" height="154px" viewBox="0 0 154 154" version="1.1" xmlns="http://www.w3.org/2000/svg" xmlns:xlink="http://www.w3.org/1999/xlink">
    <!-- Generator: Sketch 60.1 (88133) - https://sketch.com -->
    <title>Collection Copy</title>
    <desc>Created with Sketch.</desc>
    <defs>
        <rect id="path-1" x="-2.84217094e-14" y="0" width="154" height="154" rx="4"></rect>
        <linearGradient x1="27.1603954%" y1="20.0774341%" x2="71.5282207%" y2="76.6927332%" id="linearGradient-3">
            <stop stop-color="#FFFFFF" offset="0%"></stop>
            <stop stop-color="#FFFFFF" stop-opacity="0" offset="100%"></stop>
        </linearGradient>
    </defs>
    <g id="Collection-Copy" stroke="none" stroke-width="1" fill="none" fill-rule="evenodd">
        <g id="Bitmap-Copy-8">
            <mask id="mask-2" fill="white">
                <use xlink:href="#path-1"></use>
            </mask>
            <use id="Mask" fill="#2B3039" xlink:href="#path-1"></use>
        </g>
        <g id="24px-(1)" transform="translate(62.000000, 65.000000)"></g>
        <path d="M72.5881849,99.6434262 C74.6833391,98.7132413 77.2827584,98.7132413 79.3779126,99.6434262 C80.2358325,100.020528 95.4284898,106.8499 107.491803,117.40657 C96.5842831,120.981934 85.507187,129.923077 75.9830487,129.923077 C66.4589105,129.923077 55.3818144,120.981934 44.4754098,117.405477 C56.539839,106.850993 71.730265,100.020528 72.5881849,99.6434262 Z M33.6215927,84.5275551 C35.1250885,83.1258722 37.5255436,82.6002411 39.6478632,83.2057149 C40.3984941,83.415302 56.0712655,88.6937914 68.8688525,96.4584936 C65.0453262,98.6741285 47.9952811,106.879074 38.4917575,116.932601 C30.7531102,113.901905 23.2099397,111.216085 17.7589295,109.648064 C17.0418089,107.351477 16.4564955,104.998335 16.0163934,102.596401 C22.9965908,92.6681834 33.1535654,84.9677989 33.6215927,84.5275551 Z M113.512476,83.2014567 C115.647631,82.6068108 118.062605,83.1219528 119.575194,84.4996582 C120.062908,84.9461873 130.962316,93.0109374 137.983607,103.235363 C137.586917,105.159795 137.094708,107.049375 136.510349,108.901926 C130.97243,110.38963 120.705345,111.77569 112.445664,114.934066 C102.883538,105.060329 87.9614055,98.393246 84.1147541,96.2172337 C96.9897425,88.591389 112.757305,83.4072957 113.512476,83.2014567 Z M136.711485,74.96337 C138.201628,79.9741149 139,85.2527398 139,90.7042595 C139,92.1311745 138.942163,93.547417 138.834429,94.9487179 C132.072081,87.4384705 125.543348,81.8023163 122.737705,79.7083693 C127.547216,77.7339544 132.355594,76.1757674 136.711485,74.96337 Z M17.2029112,74.96337 C21.3048062,76.1505382 25.7747911,77.6476832 30.2459016,79.5118494 C27.5758427,81.5353092 21.5108015,86.842586 15.1013092,93.9494505 C15.036021,92.8419292 15,91.7257973 15,90.6021314 C15,85.1883 15.7676982,79.9456017 17.2029112,74.96337 Z M72.7435558,57.7860531 C74.8502058,56.7067247 77.4638875,56.7067247 79.5705375,57.7860531 C80.4331646,58.2245303 98.4114811,65.1335382 110.540984,77.3934911 C99.573616,81.546512 82.3468732,92.9501832 76.1570466,92.9501832 C69.9672201,92.9501832 54.5075826,81.5476001 43.540215,77.3934911 C55.671961,65.1368023 71.8809287,58.2245303 72.7435558,57.7860531 Z M111.210687,40.9882784 C121.949906,47.9869279 130.326475,58.1580784 134.934426,70.1229079 C126.652855,73.419756 119.474376,76.0541533 116.281333,74.5102688 C110.289767,71.6095707 96.141804,57.1875109 80.0491803,51.6205034 C96.7866713,43.0856724 108.603277,41.4757629 111.210687,40.9882784 Z M42.6101117,40.9882784 C46.219169,41.6211161 57.4679911,43.5825818 72.9344262,51.5355741 C56.9150622,57.1228797 42.8303932,71.5975244 36.8661033,74.5087989 C33.7866117,76.0097177 26.9834718,73.5744521 19.0655738,70.4124722 C23.6002587,58.3410647 31.9208937,48.0709807 42.6101117,40.9882784 Z M74.496324,25.449393 C76.3532681,24.8502023 78.6598114,24.8502023 80.5178601,25.449393 C81.2789752,25.6931135 94.757009,30.0992397 105.459016,36.9095784 C95.7821394,39.2169411 81.6479338,44.985348 77.5065397,44.985348 C73.3662503,44.9842837 59.2309401,39.2169411 49.557377,36.9095784 C60.2582797,30.0992397 73.7341042,25.6931135 74.496324,25.449393 Z" id="Combined-Shape-Copy-4" fill="url(#linearGradient-3)" opacity="0.200000003"></path>
        <path d="M84.3939396,76.9242425 C86.6324245,76.9242425 88.4259094,75.1172728 88.4259094,72.8787879 C88.4259094,70.6403031 86.6324245,68.8333333 84.3939396,68.8333333 C82.1554547,68.8333333 80.348485,70.6403031 80.348485,72.8787879 C80.348485,75.1172728 82.1554547,76.9242425 84.3939396,76.9242425 Z M73.6060607,76.9242425 C75.8445456,76.9242425 77.6380305,75.1172728 77.6380305,72.8787879 C77.6380305,70.6403031 75.8445456,68.8333333 73.6060607,68.8333333 C71.3675758,68.8333333 69.5606061,70.6403031 69.5606061,72.8787879 C69.5606061,75.1172728 71.3675758,76.9242425 73.6060607,76.9242425 Z M73.6060607,79.6212122 C70.464091,79.6212122 64.1666667,81.1989395 64.1666667,84.3409093 L64.1666667,87.7121214 L83.0454548,87.7121214 L83.0454548,84.3409093 C83.0454548,81.1989395 76.7480304,79.6212122 73.6060607,79.6212122 Z M84.3939396,79.6212122 C84.002879,79.6212122 83.557879,79.6481819 83.0859093,79.6886365 C84.6501517,80.8213638 85.7424245,82.3451517 85.7424245,84.3409093 L85.7424245,87.7121214 L93.8333337,87.7121214 L93.8333337,84.3409093 C93.8333337,81.1989395 87.5359094,79.6212122 84.3939396,79.6212122 Z" id="Shape" fill="#FFFFFF" fill-rule="nonzero"></path>
    </g>
</svg>