<?xml version="1.0" encoding="UTF-8"?>
<svg width="1680px" height="330px" viewBox="0 0 1680 330" version="1.1" xmlns="http://www.w3.org/2000/svg" xmlns:xlink="http://www.w3.org/1999/xlink">
    <!-- Generator: Sketch 60.1 (88133) - https://sketch.com -->
    <title>DiscoverCollections</title>
    <desc>Created with Sketch.</desc>
    <defs>
        <path d="M446.318301,311.023788 C380.121917,279.154721 223.804169,120.849815 46,59.6990677 C230.92923,-34.0054217 361.48876,-51.6883994 390.296256,-57 C508.950265,19.8414052 601.498307,131.467114 652.411043,262.833582 C560.912725,299.038748 481.59856,327.981847 446.318301,311.023788" id="path-1"></path>
        <filter x="-12.4%" y="-20.1%" width="124.7%" height="140.2%" filterUnits="objectBoundingBox" id="filter-2">
            <feOffset dx="0" dy="0" in="SourceAlpha" result="shadowOffsetOuter1"></feOffset>
            <feGaussianBlur stdDeviation="25" in="shadowOffsetOuter1" result="shadowBlurOuter1"></feGaussianBlur>
            <feColorMatrix values="0 0 0 0 1   0 0 0 0 0.682352941   0 0 0 0 0.160784314  0 0 0 0.4 0" type="matrix" in="shadowBlurOuter1"></feColorMatrix>
        </filter>
        <path d="M1178.80987,139.961615 C1174.20701,141.041852 1085.08478,171.613637 1001,163.690328 C1029.01339,113.614468 1057.61034,16.596166 1080.796,-2.86595961 C1103.98662,-22.3322536 1197.82561,-28.1125907 1252,-47 C1245.18189,37.2020701 1206.24681,114.147521 1204.38411,118.494503 C1199.90183,129.181557 1190.10913,137.401585 1178.80987,139.961615" id="path-3"></path>
        <filter x="-29.9%" y="-35.4%" width="159.8%" height="170.8%" filterUnits="objectBoundingBox" id="filter-4">
            <feOffset dx="0" dy="0" in="SourceAlpha" result="shadowOffsetOuter1"></feOffset>
            <feGaussianBlur stdDeviation="25" in="shadowOffsetOuter1" result="shadowBlurOuter1"></feGaussianBlur>
            <feColorMatrix values="0 0 0 0 1   0 0 0 0 0.682352941   0 0 0 0 0.160784314  0 0 0 0.4 0" type="matrix" in="shadowBlurOuter1"></feColorMatrix>
        </filter>
        <path d="M1414.2234,214.239106 C1395.66526,202.959648 1351.84833,146.938343 1302,125.296206 C1353.84374,92.1376908 1390.4427,85.8799096 1398.51878,84 C1431.77974,111.194309 1457.72829,150.698162 1472,197.186008 C1446.34706,210.000296 1424.11424,220.239365 1414.2234,214.239106" id="path-5"></path>
        <filter x="-44.1%" y="-56.8%" width="188.2%" height="213.6%" filterUnits="objectBoundingBox" id="filter-6">
            <feOffset dx="0" dy="0" in="SourceAlpha" result="shadowOffsetOuter1"></feOffset>
            <feGaussianBlur stdDeviation="25" in="shadowOffsetOuter1" result="shadowBlurOuter1"></feGaussianBlur>
            <feColorMatrix values="0 0 0 0 1   0 0 0 0 0.682352941   0 0 0 0 0.160784314  0 0 0 0.4 0" type="matrix" in="shadowBlurOuter1"></feColorMatrix>
        </filter>
        <path d="M1435,291 C1393.05164,286.122672 1328.29811,288.613843 1311.77881,282.593063 C1295.25951,276.572283 1247.24924,232.982158 1212,209.723325 C1264.57534,198.082298 1324.72843,200.076231 1328.12293,200.210529 C1336.40079,200.51827 1345.59639,203.869787 1352.14572,208.9661 C1354.82698,211.046231 1402.19212,248.239404 1435,291" id="path-7"></path>
        <filter x="-33.6%" y="-82.4%" width="167.3%" height="264.8%" filterUnits="objectBoundingBox" id="filter-8">
            <feOffset dx="0" dy="0" in="SourceAlpha" result="shadowOffsetOuter1"></feOffset>
            <feGaussianBlur stdDeviation="25" in="shadowOffsetOuter1" result="shadowBlurOuter1"></feGaussianBlur>
            <feColorMatrix values="0 0 0 0 1   0 0 0 0 0.682352941   0 0 0 0 0.160784314  0 0 0 0.4 0" type="matrix" in="shadowBlurOuter1"></feColorMatrix>
        </filter>
    </defs>
    <g id="DiscoverCollections" stroke="none" stroke-width="1" fill="none" fill-rule="evenodd">
        <rect fill="#FFFFFF" x="0" y="0" width="1680" height="330"></rect>
        <g id="Fill-2" transform="translate(349.205521, 129.500000) scale(-1, 1) translate(-349.205521, -129.500000) ">
            <use fill="black" fill-opacity="1" filter="url(#filter-2)" xlink:href="#path-1"></use>
            <use fill="#FFAE29" fill-rule="evenodd" xlink:href="#path-1"></use>
        </g>
        <g id="Fill-39">
            <use fill="black" fill-opacity="1" filter="url(#filter-4)" xlink:href="#path-3"></use>
            <use fill="#FFAE29" fill-rule="evenodd" xlink:href="#path-3"></use>
        </g>
        <g id="Fill-27">
            <use fill="black" fill-opacity="1" filter="url(#filter-6)" xlink:href="#path-5"></use>
            <use fill="#FFAE29" fill-rule="evenodd" xlink:href="#path-5"></use>
        </g>
        <g id="Fill-13">
            <use fill="black" fill-opacity="1" filter="url(#filter-8)" xlink:href="#path-7"></use>
            <use fill="#FFAE29" fill-rule="evenodd" xlink:href="#path-7"></use>
        </g>
    </g>
</svg>