<?xml version="1.0" encoding="UTF-8"?>
<svg width="1680px" height="330px" viewBox="0 0 1680 330" version="1.1" xmlns="http://www.w3.org/2000/svg" xmlns:xlink="http://www.w3.org/1999/xlink">
    <!-- Generator: Sketch 60.1 (88133) - https://sketch.com -->
    <title>Discover Communities</title>
    <desc>Created with Sketch.</desc>
    <defs>
        <path d="M228.161772,151.237249 C232.230812,151.71934 313.886701,153.169288 380,184.55941 C342.306883,217.146427 290.187316,287.891298 265.523689,296.911504 C240.85478,305.933643 162.72616,282.842348 113,282.209087 C143.576628,215.474663 198.148628,164.184188 200.957301,161.186716 C207.783296,153.788634 218.200231,149.978858 228.161772,151.237249" id="path-1"></path>
        <filter x="-28.1%" y="-50.7%" width="156.2%" height="201.4%" filterUnits="objectBoundingBox" id="filter-2">
            <feOffset dx="0" dy="0" in="SourceAlpha" result="shadowOffsetOuter1"></feOffset>
            <feGaussianBlur stdDeviation="25" in="shadowOffsetOuter1" result="shadowBlurOuter1"></feGaussianBlur>
            <feColorMatrix values="0 0 0 0 0.168627451   0 0 0 0 0.188235294   0 0 0 0 0.223529412  0 0 0 0.4 0" type="matrix" in="shadowBlurOuter1"></feColorMatrix>
        </filter>
        <path d="M460.922422,227.625461 C436.093322,212.415283 377.470279,136.871402 310.777778,107.687308 C380.139956,62.9735527 429.106018,54.5350296 439.911071,52 C484.41119,88.671113 519.127985,141.941461 538.222222,204.629617 C503.900935,221.90949 474.155454,235.71672 460.922422,227.625461" id="path-3"></path>
        <filter x="-33.0%" y="-42.1%" width="166.0%" height="184.3%" filterUnits="objectBoundingBox" id="filter-4">
            <feOffset dx="0" dy="0" in="SourceAlpha" result="shadowOffsetOuter1"></feOffset>
            <feGaussianBlur stdDeviation="25" in="shadowOffsetOuter1" result="shadowBlurOuter1"></feGaussianBlur>
            <feColorMatrix values="0 0 0 0 0.168627451   0 0 0 0 0.188235294   0 0 0 0 0.223529412  0 0 0 0.4 0" type="matrix" in="shadowBlurOuter1"></feColorMatrix>
        </filter>
        <path d="M594.894754,300.577917 C553.864284,310.335358 493.945522,334.787945 476.389134,334.787945 C458.832746,334.787945 398.908365,310.335358 357.894754,300.577917 C403.263743,271.710046 460.395062,253.032157 463.626472,251.998553 C471.499871,249.459484 481.272778,249.459484 489.157417,251.998553 C492.383206,253.032157 549.520145,271.710046 594.894754,300.577917" id="path-5"></path>
        <filter x="-31.6%" y="-88.6%" width="163.3%" height="277.1%" filterUnits="objectBoundingBox" id="filter-6">
            <feOffset dx="0" dy="0" in="SourceAlpha" result="shadowOffsetOuter1"></feOffset>
            <feGaussianBlur stdDeviation="25" in="shadowOffsetOuter1" result="shadowBlurOuter1"></feGaussianBlur>
            <feColorMatrix values="0 0 0 0 0.168627451   0 0 0 0 0.188235294   0 0 0 0 0.223529412  0 0 0 0.4 0" type="matrix" in="shadowBlurOuter1"></feColorMatrix>
        </filter>
        <path d="M1370.44552,267.608793 C1305.38561,236.122043 1151.75157,79.7162407 977,19.2990881 C1158.75431,-73.281276 1287.07236,-90.75212 1315.38528,-96 C1432.0022,-20.0804222 1522.96135,90.2061691 1573,219.996701 C1483.07255,255.767531 1405.12008,284.363414 1370.44552,267.608793" id="path-7"></path>
        <filter x="-12.6%" y="-20.4%" width="125.2%" height="140.7%" filterUnits="objectBoundingBox" id="filter-8">
            <feOffset dx="0" dy="0" in="SourceAlpha" result="shadowOffsetOuter1"></feOffset>
            <feGaussianBlur stdDeviation="25" in="shadowOffsetOuter1" result="shadowBlurOuter1"></feGaussianBlur>
            <feColorMatrix values="0 0 0 0 0.168627451   0 0 0 0 0.188235294   0 0 0 0 0.223529412  0 0 0 0.4 0" type="matrix" in="shadowBlurOuter1"></feColorMatrix>
        </filter>
    </defs>
    <g id="Discover-Communities" stroke="none" stroke-width="1" fill="none" fill-rule="evenodd">
        <rect fill="#FFFFFF" x="0" y="0" width="1680" height="330"></rect>
        <g id="Fill-39">
            <use fill="black" fill-opacity="1" filter="url(#filter-2)" xlink:href="#path-1"></use>
            <use fill="#2B3039" fill-rule="evenodd" xlink:href="#path-1"></use>
        </g>
        <g id="Fill-27">
            <use fill="black" fill-opacity="1" filter="url(#filter-4)" xlink:href="#path-3"></use>
            <use fill="#2B3039" fill-rule="evenodd" xlink:href="#path-3"></use>
        </g>
        <g id="Fill-13" transform="translate(476.394754, 292.441098) rotate(20.000000) translate(-476.394754, -292.441098) ">
            <use fill="black" fill-opacity="1" filter="url(#filter-6)" xlink:href="#path-5"></use>
            <use fill="#2B3039" fill-rule="evenodd" xlink:href="#path-5"></use>
        </g>
        <g id="Fill-2">
            <use fill="black" fill-opacity="1" filter="url(#filter-8)" xlink:href="#path-7"></use>
            <use fill="#2B3039" fill-rule="evenodd" xlink:href="#path-7"></use>
        </g>
    </g>
</svg>