<?xml version="1.0" encoding="UTF-8"?>
<svg width="54px" height="47px" viewBox="0 0 54 47" version="1.1" xmlns="http://www.w3.org/2000/svg" xmlns:xlink="http://www.w3.org/1999/xlink">
    <!-- Generator: Sketch 48.2 (47327) - http://www.bohemiancoding.com/sketch -->
    <title>Combined Shape Copy</title>
    <desc>Created with Sketch.</desc>
    <defs></defs>
    <g id="1.0.1-Write-Article" stroke="none" stroke-width="1" fill="none" fill-rule="evenodd" transform="translate(-236.000000, -152.000000)">
        <path d="M289.927896,182.857143 C286.983003,179.544076 284.139845,177.057746 282.918033,176.134023 C285.012497,175.263031 287.106468,174.575653 289.003388,174.040816 C289.652322,176.251254 290,178.579864 290,180.984745 C290,181.614213 289.974813,182.238974 289.927896,182.857143 Z M276.278689,192.764189 C271.528639,194.341423 266.704743,198.285714 262.557134,198.285714 C258.409526,198.285714 253.585629,194.341423 248.836066,192.763706 C254.08993,188.107707 260.705115,185.094519 261.078726,184.928164 C261.991132,184.517823 263.123137,184.517823 264.035543,184.928164 C264.409153,185.094519 271.02531,188.107224 276.278689,192.764189 Z M242.639344,176.04733 C241.476577,176.939958 238.835349,179.281208 236.044119,182.416327 C236.015687,181.927755 236,181.435385 236,180.939692 C236,178.551437 236.33432,176.238676 236.959332,174.040816 C238.745641,174.564523 240.692248,175.224973 242.639344,176.04733 Z M278.900594,177.674962 C279.83042,177.41264 280.882102,177.63989 281.54081,178.24765 C281.753202,178.444631 286.499718,182.002311 289.557377,186.51271 C289.384625,187.361652 289.170276,188.195221 288.915797,189.012454 C286.504123,189.668739 282.032973,190.280185 278.436015,191.673469 C274.271863,187.317774 267.773515,184.37666 266.098361,183.416735 C271.70521,180.052674 278.57173,177.765766 278.900594,177.674962 Z M245.522335,173.840287 C244.181266,174.502402 241.218609,173.42811 237.770492,172.033236 C239.745274,166.708061 243.368776,162.177521 248.023758,159.053061 C249.595445,159.332231 254.494125,160.197511 261.229508,163.70589 C254.253334,166.170671 248.119687,172.556009 245.522335,173.840287 Z M264.119428,166.463223 C264.495088,166.656653 272.324355,169.704489 277.606557,175.112839 C272.830446,176.9449 265.328477,181.97551 262.632907,181.97551 C259.937338,181.97551 253.204915,176.94538 248.428803,175.112839 C253.711983,169.705929 260.770727,166.656653 261.146387,166.463223 C262.063799,165.987089 263.202016,165.987089 264.119428,166.463223 Z M259.459016,183.523165 C257.793932,184.500569 250.368913,188.120094 246.230282,192.555102 C242.860225,191.218142 239.575296,190.033321 237.201469,189.341605 C236.889175,188.32849 236.63428,187.290426 236.442623,186.230838 C239.482386,181.851109 243.905585,178.454165 244.109403,178.259956 C244.764151,177.641619 245.809511,177.409742 246.733747,177.67684 C247.060635,177.769297 253.885874,180.097848 259.459016,183.523165 Z M275.393443,157.253786 C271.179319,158.271654 265.0241,160.816327 263.22059,160.816327 C261.417561,160.815857 255.261861,158.271654 251.04918,157.253786 C255.709251,154.249476 261.577755,152.30576 261.909689,152.198245 C262.718359,151.933918 263.722821,151.933918 264.531971,152.198245 C264.863425,152.30576 270.732891,154.249476 275.393443,157.253786 Z M280.106387,173.840935 C277.497157,172.561323 271.335947,166.199183 264.327869,163.743356 C271.616776,159.978305 276.762718,159.26811 277.898202,159.053061 C282.574959,162.140442 286.22282,166.627338 288.229508,171.905497 C284.623018,173.359867 281.496906,174.522004 280.106387,173.840935 Z" id="Combined-Shape-Copy" fill="#0BA986"></path>
    </g>
</svg>