<?xml version="1.0" encoding="UTF-8"?>
<svg width="28px" height="24px" viewBox="0 0 28 24" version="1.1" xmlns="http://www.w3.org/2000/svg" xmlns:xlink="http://www.w3.org/1999/xlink">
    <!-- Generator: Sketch 48.2 (47327) - http://www.bohemiancoding.com/sketch -->
    <title>Combined Shape Copy</title>
    <desc>Created with Sketch.</desc>
    <defs>
        <linearGradient x1="27.1603954%" y1="8.20732527%" x2="71.5282207%" y2="87.281586%" id="linearGradient-1">
            <stop stop-color="#42DCC7" offset="0%"></stop>
            <stop stop-color="#0BA986" offset="100%"></stop>
        </linearGradient>
    </defs>
    <g id="1.2.3-Article-Submited" stroke="none" stroke-width="1" fill="none" fill-rule="evenodd" transform="translate(-215.000000, -34.000000)">
        <g id="Navigation" transform="translate(215.000000, 28.000000)" fill="url(#linearGradient-1)">
            <path d="M27.9626129,22 C26.4356312,20.2821135 24.9614011,18.9929052 24.3278689,18.5139378 C25.4138876,18.0623121 26.4996502,17.705894 27.4832384,17.4285714 C27.8197224,18.5747242 28,19.7821516 28,21.0291268 C28,21.3555179 27.9869401,21.6794678 27.9626129,22 Z M20.8852459,27.1369866 C18.4222575,27.9548119 15.9209777,30 13.7703658,30 C11.619754,30 9.11847422,27.9548119 6.6557377,27.1367366 C9.37996363,24.7225145 12.8100598,23.1601208 13.0037837,23.0738629 C13.476883,22.8610933 14.0638487,22.8610933 14.536948,23.0738629 C14.7306719,23.1601208 18.1612719,24.7222645 20.8852459,27.1369866 Z M3.44262295,18.4689861 C2.83970641,18.9318303 1.47018098,20.1458115 0.02287626,21.7714286 C0.00813378134,21.5180952 0,21.2627924 0,21.0057661 C0,19.7674117 0.173351215,18.5682021 0.497431565,17.4285714 C1.42366591,17.7001231 2.43301734,18.0425786 3.44262295,18.4689861 Z M22.2447526,19.3129432 C22.7268845,19.1769245 23.272201,19.2947575 23.6137534,19.6098925 C23.7238825,19.7120311 26.1850391,21.556754 27.7704918,23.895479 C27.6809168,24.3356715 27.5697727,24.7678922 27.4378208,25.1916428 C26.1873229,25.5319388 23.8689489,25.8489848 22.0038597,26.5714286 C19.8446699,24.3129198 16.4751561,22.7878979 15.6065574,22.290159 C18.5138128,20.5458309 22.0742301,19.3600266 22.2447526,19.3129432 Z M4.93750719,17.3245933 C4.24213812,17.667912 2.70594525,17.1108717 0.918032787,16.3876036 C1.94199389,13.6264019 3.82084696,11.2772331 6.23454134,9.65714286 C7.04948978,9.80189753 9.58954639,10.2505612 13.0819672,12.0697208 C9.46469146,13.3477555 6.28428234,16.6586713 4.93750719,17.3245933 Z M14.5804439,13.4994491 C14.7752307,13.5997459 18.8348506,15.1801055 21.5737705,17.9844349 C19.0972681,18.9343928 15.2073585,21.5428571 13.8096557,21.5428571 C12.4119529,21.5428571 8.92106704,18.9346417 6.44456468,17.9844349 C9.1839912,15.1808521 12.8440807,13.5997459 13.0388674,13.4994491 C13.5145626,13.2525646 14.1047488,13.2525646 14.5804439,13.4994491 Z M12.1639344,22.3453446 C11.3005575,22.8521467 7.45054735,24.7289379 5.30459041,27.0285714 C3.55715392,26.3353331 1.85385736,25.7209814 0.622984081,25.3623137 C0.461053621,24.8369948 0.32888608,24.2987395 0.229508197,23.7493234 C1.80568179,21.4783528 4.09919218,19.7169745 4.20487576,19.6162736 C4.54437483,19.2956541 5.08641308,19.1754217 5.56564653,19.3139172 C5.73514383,19.3618579 9.27415673,20.5692543 12.1639344,22.3453446 Z M20.4262295,8.72418508 C18.2411282,9.25196894 15.0495334,10.5714286 14.1143799,10.5714286 C13.1794759,10.5711851 9.98763162,9.25196894 7.80327869,8.72418508 C10.2196116,7.16639501 13.2625397,6.15854208 13.4346538,6.1027937 C13.8539638,5.96573543 14.3747961,5.96573543 14.7943555,6.1027937 C14.9662202,6.15854208 18.0096472,7.16639501 20.4262295,8.72418508 Z M22.8699784,17.3249295 C21.5170442,16.6614267 18.3223428,13.3625392 14.6885246,12.0891474 C18.467958,10.1368987 21.1362239,9.76864959 21.7249938,9.65714286 C24.1499789,11.258007 26.0414621,13.5845458 27.0819672,16.321369 C25.211935,17.0754867 23.5909881,17.6780761 22.8699784,17.3249295 Z" id="Combined-Shape-Copy"></path>
        </g>
    </g>
</svg>